<?xml version="1.0" standalone="no"?>
<!DOCTYPE svg PUBLIC "-//W3C//DTD SVG 20010904//EN"
 "http://www.w3.org/TR/2001/REC-SVG-20010904/DTD/svg10.dtd">
<svg version="1.0" xmlns="http://www.w3.org/2000/svg"
 width="706.000000pt" height="332.000000pt" viewBox="0 0 706.000000 332.000000"
 preserveAspectRatio="xMidYMid meet">

<g transform="translate(0.000000,332.000000) scale(0.100000,-0.100000)"
fill="#000000" stroke="none">
<path d="M1313 2342 l-183 -107 0 -216 0 -217 184 -105 184 -106 186 107 186
107 0 216 0 217 -184 106 c-101 58 -186 106 -188 106 -1 -1 -85 -49 -185 -108z
m303 -127 c149 -88 145 -307 -7 -390 -45 -24 -59 -27 -124 -23 -95 4 -147 37
-188 118 -65 125 -8 265 129 316 55 20 134 12 190 -21z"/>
<path d="M1439 2178 c-23 -24 -64 -107 -56 -114 2 -2 26 11 53 31 27 19 71 48
97 64 44 26 46 29 25 35 -49 13 -97 6 -119 -16z"/>
<path d="M1599 2140 c-14 -4 -63 -33 -108 -64 -45 -31 -89 -56 -97 -56 -8 0
-14 -7 -14 -16 0 -15 12 -16 103 -11 93 4 197 29 197 45 0 4 -5 23 -10 43 -13
48 -38 68 -71 59z"/>
<path d="M1331 2084 c0 -11 3 -14 6 -6 3 7 2 16 -1 19 -3 4 -6 -2 -5 -13z"/>
<path d="M1315 2010 c3 -5 8 -10 11 -10 2 0 4 5 4 10 0 6 -5 10 -11 10 -5 0
-7 -4 -4 -10z"/>
<path d="M1620 1964 c-25 -7 -90 -13 -144 -13 l-100 -1 79 -40 c99 -50 142
-53 178 -10 24 28 43 69 35 74 -1 1 -23 -4 -48 -10z"/>
<path d="M1429 1860 c13 -11 33 -20 45 -20 17 1 14 4 -14 20 -45 25 -61 25
-31 0z"/>
<path d="M4365 1826 c-17 -7 -43 -28 -58 -45 -22 -27 -27 -42 -27 -89 0 -77
22 -110 111 -163 39 -24 77 -52 83 -61 16 -26 -4 -71 -37 -82 -22 -8 -31 -6
-52 14 -15 14 -25 34 -25 52 0 27 -2 28 -46 28 l-46 0 7 -42 c9 -53 16 -66 54
-102 67 -64 182 -39 222 48 40 88 16 139 -95 206 -86 52 -96 62 -96 101 0 32
28 59 63 59 38 0 57 -25 57 -76 l0 -44 46 0 47 0 -6 55 c-7 68 -30 107 -77
134 -43 24 -82 26 -125 7z"/>
<path d="M5290 1821 c-70 -37 -75 -52 -78 -244 -2 -158 -1 -175 18 -205 55
-88 166 -96 240 -17 24 26 25 31 28 203 3 172 2 178 -20 212 -44 65 -122 87
-188 51z m114 -93 c13 -18 16 -52 16 -161 0 -133 -1 -139 -25 -162 -28 -29
-42 -31 -73 -9 -21 15 -22 21 -22 169 0 126 3 156 16 169 23 24 70 20 88 -6z"/>
<path d="M2680 1570 l0 -260 85 0 c110 0 158 22 186 83 24 55 24 91 -2 144
-20 41 -20 45 -5 62 59 65 27 180 -61 217 -19 8 -68 14 -118 14 l-85 0 0 -260z
m193 148 c40 -47 3 -101 -66 -96 l-42 3 -3 57 c-3 52 -1 57 20 61 37 7 72 -2
91 -25z m-10 -206 c9 -9 17 -29 17 -48 0 -42 -40 -76 -84 -72 -31 3 -31 4 -34
67 -2 38 1 67 8 71 16 10 73 -1 93 -18z"/>
<path d="M3140 1792 c0 -36 3 -40 31 -46 17 -3 58 -6 89 -6 l58 0 -94 -174
c-75 -139 -94 -182 -94 -215 l0 -41 145 0 145 0 0 40 0 40 -95 0 c-52 0 -95 2
-95 5 0 6 128 246 167 312 17 29 23 53 21 80 l-3 38 -137 3 -138 3 0 -39z"/>
<path d="M3580 1625 c0 -187 2 -209 20 -246 26 -51 72 -79 128 -79 54 0 96 24
125 70 20 32 22 50 24 215 1 99 0 195 -3 213 -5 30 -8 32 -44 32 l-40 0 0
-203 c0 -200 0 -204 -23 -225 -29 -27 -51 -28 -77 -2 -19 19 -20 33 -20 225
l0 205 -45 0 -45 0 0 -205z"/>
<path d="M4750 1570 l0 -260 45 0 44 0 3 98 3 97 57 5 c48 4 63 11 92 39 43
42 62 110 47 167 -24 90 -67 114 -201 114 l-90 0 0 -260z m191 154 c25 -23 24
-75 -2 -108 -16 -20 -29 -26 -60 -26 l-39 0 0 73 c0 41 3 77 8 81 11 12 72 -1
93 -20z"/>
<path d="M5690 1570 l0 -260 40 0 40 0 0 73 c0 142 15 170 75 147 46 -18 54
-37 55 -132 l0 -88 44 0 44 0 -5 103 c-3 58 -11 114 -19 129 -13 25 -12 32 6
65 27 51 26 111 -3 154 -35 53 -77 69 -184 69 l-93 0 0 -260z m203 148 c22
-26 22 -40 -4 -72 -17 -21 -29 -26 -65 -26 l-44 0 0 59 c0 54 2 60 23 64 36 7
71 -2 90 -25z"/>
<path d="M6132 1790 c-2 -35 1 -40 21 -41 12 -1 29 -3 37 -4 8 -1 23 -3 32 -4
14 -1 17 -11 15 -58 0 -32 0 -129 1 -215 l2 -158 40 0 40 0 0 215 c0 165 3
215 13 217 6 0 28 1 47 2 39 1 40 2 40 51 l0 35 -143 0 -144 0 -1 -40z"/>
</g>
</svg>
